<svg xmlns="http://www.w3.org/2000/svg" xmlns:xlink="http://www.w3.org/1999/xlink" viewBox="0 0 1180 610" width="1180" height="610" role="img" aria-label="Olexandr Gerasimenko - GitHub profile banner"><defs><linearGradient id="accent" x1="0" y1="0" x2="1" y2="0" gradientUnits="objectBoundingBox" spreadMethod="reflect"><stop offset="0" stop-color="#2563EB"/><stop offset="0.5" stop-color="#06B6D4"/><stop offset="1" stop-color="#10B981"/><animateTransform attributeName="gradientTransform" type="translate" values="-0.6 0;0.6 0;-0.6 0" dur="9s" repeatCount="indefinite"/></linearGradient><linearGradient id="ascii" x1="0" y1="0" x2="1" y2="1" gradientUnits="objectBoundingBox" spreadMethod="reflect"><stop offset="0" stop-color="#2563EB"/><stop offset="1" stop-color="#06B6D4"/><animateTransform attributeName="gradientTransform" type="translate" values="-0.7 -0.7;0.7 0.7;-0.7 -0.7" dur="8s" repeatCount="indefinite"/></linearGradient><linearGradient id="shimmer" gradientUnits="userSpaceOnUse" x1="0" y1="0" x2="1180" y2="0"><stop offset="0" stop-color="#2563EB" stop-opacity="0"/><stop offset="0.45" stop-color="#2563EB" stop-opacity="0"/><stop offset="0.5" stop-color="#2563EB" stop-opacity="0.9"/><stop offset="0.55" stop-color="#06B6D4" stop-opacity="0"/><stop offset="1" stop-color="#06B6D4" stop-opacity="0"/><animateTransform attributeName="gradientTransform" type="translate" values="-1180 0;1180 0" dur="5s" repeatCount="indefinite"/></linearGradient><linearGradient id="scan" x1="0" y1="0" x2="0" y2="1"><stop offset="0" stop-color="#2563EB" stop-opacity="0"/><stop offset="0.5" stop-color="#2563EB" stop-opacity="1"/><stop offset="1" stop-color="#2563EB" stop-opacity="0"/></linearGradient><linearGradient id="glass" x1="0" y1="0" x2="0" y2="1"><stop offset="0" stop-color="rgba(255,255,255,0.55)"/><stop offset="1" stop-color="rgba(255,255,255,0.55)" stop-opacity="0"/></linearGradient><radialGradient id="blob1"><stop offset="0" stop-color="#2563EB" stop-opacity="0.14"/><stop offset="1" stop-color="#2563EB" stop-opacity="0"/></radialGradient><radialGradient id="blob2"><stop offset="0" stop-color="#06B6D4" stop-opacity="0.14"/><stop offset="1" stop-color="#06B6D4" stop-opacity="0"/></radialGradient><radialGradient id="blob3"><stop offset="0" stop-color="#10B981" stop-opacity="0.14"/><stop offset="1" stop-color="#10B981" stop-opacity="0"/></radialGradient><filter id="glow" x="-50%" y="-50%" width="200%" height="200%"><feGaussianBlur stdDeviation="2.4" result="b"/><feMerge><feMergeNode in="b"/><feMergeNode in="SourceGraphic"/></feMerge></filter><filter id="soft" x="-80%" y="-80%" width="260%" height="260%"><feGaussianBlur stdDeviation="60"/></filter><filter id="noise" x="0" y="0" width="100%" height="100%"><feTurbulence type="fractalNoise" baseFrequency="0.9" numOctaves="2" stitchTiles="stitch" result="n"/><feColorMatrix in="n" type="saturate" values="0"/></filter><clipPath id="clipL"><rect x="24" y="24" width="422" height="562" rx="20"/></clipPath><clipPath id="clipR"><rect x="466" y="24" width="690" height="562" rx="20"/></clipPath></defs><rect x="0" y="0" width="1180" height="610" rx="24" fill="#FFFFFF"/><circle cx="300" cy="180" r="260" fill="url(#blob1)" filter="url(#soft)"><animateTransform attributeName="transform" type="translate" values="0 0;30 40;0 0" dur="18s" repeatCount="indefinite" additive="sum"/></circle><circle cx="900" cy="460" r="300" fill="url(#blob2)" filter="url(#soft)"><animateTransform attributeName="transform" type="translate" values="0 0;-40 -30;0 0" dur="22s" repeatCount="indefinite" additive="sum"/></circle><circle cx="620" cy="120" r="220" fill="url(#blob3)" filter="url(#soft)"><animateTransform attributeName="transform" type="translate" values="0 0;20 -30;0 0" dur="16s" repeatCount="indefinite" additive="sum"/></circle><circle cx="140" cy="90" r="1.6" fill="#2563EB"><animate attributeName="opacity" values="0;0.9;0" dur="3s" begin="0.0s" repeatCount="indefinite"/><animateTransform attributeName="transform" type="translate" values="0 0;0 -14;0 0" dur="5s" begin="0.0s" repeatCount="indefinite"/></circle><circle cx="260" cy="520" r="1.6" fill="#2563EB"><animate attributeName="opacity" values="0;0.9;0" dur="4s" begin="0.4s" repeatCount="indefinite"/><animateTransform attributeName="transform" type="translate" values="0 0;0 -14;0 0" dur="6s" begin="0.4s" repeatCount="indefinite"/></circle><circle cx="500" cy="70" r="1.6" fill="#2563EB"><animate attributeName="opacity" values="0;0.9;0" dur="5s" begin="0.8s" repeatCount="indefinite"/><animateTransform attributeName="transform" type="translate" values="0 0;0 -14;0 0" dur="7s" begin="0.8s" repeatCount="indefinite"/></circle><circle cx="760" cy="540" r="1.6" fill="#2563EB"><animate attributeName="opacity" values="0;0.9;0" dur="6s" begin="1.2s" repeatCount="indefinite"/><animateTransform attributeName="transform" type="translate" values="0 0;0 -14;0 0" dur="8s" begin="1.2s" repeatCount="indefinite"/></circle><circle cx="1040" cy="120" r="1.6" fill="#2563EB"><animate attributeName="opacity" values="0;0.9;0" dur="7s" begin="1.6s" repeatCount="indefinite"/><animateTransform attributeName="transform" type="translate" values="0 0;0 -14;0 0" dur="9s" begin="1.6s" repeatCount="indefinite"/></circle><circle cx="1120" cy="380" r="1.6" fill="#2563EB"><animate attributeName="opacity" values="0;0.9;0" dur="3s" begin="2.0s" repeatCount="indefinite"/><animateTransform attributeName="transform" type="translate" values="0 0;0 -14;0 0" dur="5s" begin="2.0s" repeatCount="indefinite"/></circle><circle cx="80" cy="300" r="1.6" fill="#2563EB"><animate attributeName="opacity" values="0;0.9;0" dur="4s" begin="2.4s" repeatCount="indefinite"/><animateTransform attributeName="transform" type="translate" values="0 0;0 -14;0 0" dur="6s" begin="2.4s" repeatCount="indefinite"/></circle><circle cx="420" cy="470" r="1.6" fill="#2563EB"><animate attributeName="opacity" values="0;0.9;0" dur="5s" begin="2.8s" repeatCount="indefinite"/><animateTransform attributeName="transform" type="translate" values="0 0;0 -14;0 0" dur="7s" begin="2.8s" repeatCount="indefinite"/></circle><circle cx="980" cy="300" r="1.6" fill="#2563EB"><animate attributeName="opacity" values="0;0.9;0" dur="6s" begin="3.2s" repeatCount="indefinite"/><animateTransform attributeName="transform" type="translate" values="0 0;0 -14;0 0" dur="8s" begin="3.2s" repeatCount="indefinite"/></circle><circle cx="640" cy="560" r="1.6" fill="#2563EB"><animate attributeName="opacity" values="0;0.9;0" dur="7s" begin="3.6s" repeatCount="indefinite"/><animateTransform attributeName="transform" type="translate" values="0 0;0 -14;0 0" dur="9s" begin="3.6s" repeatCount="indefinite"/></circle><circle cx="200" cy="200" r="1.6" fill="#2563EB"><animate attributeName="opacity" values="0;0.9;0" dur="3s" begin="4.0s" repeatCount="indefinite"/><animateTransform attributeName="transform" type="translate" values="0 0;0 -14;0 0" dur="5s" begin="4.0s" repeatCount="indefinite"/></circle><circle cx="900" cy="90" r="1.6" fill="#2563EB"><animate attributeName="opacity" values="0;0.9;0" dur="4s" begin="4.4s" repeatCount="indefinite"/><animateTransform attributeName="transform" type="translate" values="0 0;0 -14;0 0" dur="6s" begin="4.4s" repeatCount="indefinite"/></circle><rect x="0" y="0" width="1180" height="610" rx="24" filter="url(#noise)" opacity="0.03"/><rect x="24" y="24" width="422" height="562" rx="20" fill="#F8FAFC" fill-opacity="0.82" stroke="rgba(15,23,42,0.08)" stroke-width="1"/><rect x="24" y="24" width="422" height="281" rx="20" fill="url(#glass)" clip-path="url(#clipL)" opacity="0.7"/><rect x="24" y="24" width="422" height="562" rx="20" fill="none" stroke="url(#shimmer)" stroke-width="1.6" filter="url(#glow)"/><text x="46" y="64" font-family="'SFMono-Regular',Consolas,'Liberation Mono',Menlo,monospace" font-size="13" fill="#475569" letter-spacing="1">portrait.ascii</text><circle cx="416" cy="59" r="4" fill="#10B981"><animate attributeName="opacity" values="1;0.3;1" dur="2s" repeatCount="indefinite"/></circle><g clip-path="url(#clipL)"><rect x="24" y="24" width="422" height="46" fill="url(#scan)" opacity="0.5"><animate attributeName="y" values="24;540;24" dur="7s" repeatCount="indefinite"/></rect></g><g filter="url(#glow)"><animateTransform attributeName="transform" type="translate" values="0 0;0 -7;0 0" dur="6s" repeatCount="indefinite"/><text x="235" y="167" font-family="'SFMono-Regular',Consolas,'Liberation Mono',Menlo,monospace" font-size="17" text-anchor="middle" fill="url(#ascii)" xml:space="preserve" opacity="0">     ▄▄████████▄▄<animate attributeName="opacity" values="0;1" dur="0.35s" begin="0.30s" fill="freeze"/></text><text x="235" y="189" font-family="'SFMono-Regular',Consolas,'Liberation Mono',Menlo,monospace" font-size="17" text-anchor="middle" fill="url(#ascii)" xml:space="preserve" opacity="0">   ▄██████████████▄<animate attributeName="opacity" values="0;1" dur="0.35s" begin="0.43s" fill="freeze"/></text><text x="235" y="211" font-family="'SFMono-Regular',Consolas,'Liberation Mono',Menlo,monospace" font-size="17" text-anchor="middle" fill="url(#ascii)" xml:space="preserve" opacity="0">  ████████████████<animate attributeName="opacity" values="0;1" dur="0.35s" begin="0.56s" fill="freeze"/></text><text x="235" y="233" font-family="'SFMono-Regular',Consolas,'Liberation Mono',Menlo,monospace" font-size="17" text-anchor="middle" fill="url(#ascii)" xml:space="preserve" opacity="0">  ███▀▀        ▀▀███<animate attributeName="opacity" values="0;1" dur="0.35s" begin="0.69s" fill="freeze"/></text><text x="235" y="255" font-family="'SFMono-Regular',Consolas,'Liberation Mono',Menlo,monospace" font-size="17" text-anchor="middle" fill="url(#ascii)" xml:space="preserve" opacity="0">  ██▌  ██    ██  ▐██<animate attributeName="opacity" values="0;1" dur="0.35s" begin="0.82s" fill="freeze"/></text><text x="235" y="277" font-family="'SFMono-Regular',Consolas,'Liberation Mono',Menlo,monospace" font-size="17" text-anchor="middle" fill="url(#ascii)" xml:space="preserve" opacity="0">  ██▌  ▀▀    ▀▀  ▐██<animate attributeName="opacity" values="0;1" dur="0.35s" begin="0.95s" fill="freeze"/></text><text x="235" y="299" font-family="'SFMono-Regular',Consolas,'Liberation Mono',Menlo,monospace" font-size="17" text-anchor="middle" fill="url(#ascii)" xml:space="preserve" opacity="0">  ██▌      ▄▄      ▐██<animate attributeName="opacity" values="0;1" dur="0.35s" begin="1.08s" fill="freeze"/></text><text x="235" y="321" font-family="'SFMono-Regular',Consolas,'Liberation Mono',Menlo,monospace" font-size="17" text-anchor="middle" fill="url(#ascii)" xml:space="preserve" opacity="0">  ███▄   ▀▀▀▀   ▄███<animate attributeName="opacity" values="0;1" dur="0.35s" begin="1.21s" fill="freeze"/></text><text x="235" y="343" font-family="'SFMono-Regular',Consolas,'Liberation Mono',Menlo,monospace" font-size="17" text-anchor="middle" fill="url(#ascii)" xml:space="preserve" opacity="0">   ▀███▄▄      ▄▄███▀<animate attributeName="opacity" values="0;1" dur="0.35s" begin="1.34s" fill="freeze"/></text><text x="235" y="365" font-family="'SFMono-Regular',Consolas,'Liberation Mono',Menlo,monospace" font-size="17" text-anchor="middle" fill="url(#ascii)" xml:space="preserve" opacity="0">     ▀██████████▀<animate attributeName="opacity" values="0;1" dur="0.35s" begin="1.47s" fill="freeze"/></text><text x="235" y="387" font-family="'SFMono-Regular',Consolas,'Liberation Mono',Menlo,monospace" font-size="17" text-anchor="middle" fill="url(#ascii)" xml:space="preserve" opacity="0">   ▄▄██████████▄▄<animate attributeName="opacity" values="0;1" dur="0.35s" begin="1.60s" fill="freeze"/></text><text x="235" y="409" font-family="'SFMono-Regular',Consolas,'Liberation Mono',Menlo,monospace" font-size="17" text-anchor="middle" fill="url(#ascii)" xml:space="preserve" opacity="0">  ████████████████<animate attributeName="opacity" values="0;1" dur="0.35s" begin="1.73s" fill="freeze"/></text><text x="235" y="431" font-family="'SFMono-Regular',Consolas,'Liberation Mono',Menlo,monospace" font-size="17" text-anchor="middle" fill="url(#ascii)" xml:space="preserve" opacity="0">  ▀██▀          ▀██▀<animate attributeName="opacity" values="0;1" dur="0.35s" begin="1.86s" fill="freeze"/></text></g><rect x="227" y="440" width="14" height="16" fill="#2563EB" opacity="0"><animate attributeName="opacity" values="0;1;0" dur="1s" begin="1.99s" repeatCount="indefinite"/></rect><rect x="466" y="24" width="690" height="562" rx="20" fill="#F8FAFC" fill-opacity="0.82" stroke="rgba(15,23,42,0.08)" stroke-width="1"/><rect x="466" y="24" width="690" height="281" rx="20" fill="url(#glass)" clip-path="url(#clipR)" opacity="0.7"/><rect x="466" y="24" width="690" height="562" rx="20" fill="none" stroke="url(#shimmer)" stroke-width="1.6" filter="url(#glow)"/><circle cx="492" cy="54" r="6" fill="#FF5F56"/><circle cx="514" cy="54" r="6" fill="#FFBD2E"/><circle cx="536" cy="54" r="6" fill="#27C93F"/><text x="811" y="59" font-family="'SFMono-Regular',Consolas,'Liberation Mono',Menlo,monospace" font-size="12.5" text-anchor="middle" fill="#475569">olexandr-gerasimenko — zsh</text><line x1="482" y1="76" x2="1140" y2="76" stroke="rgba(15,23,42,0.08)" stroke-width="1"/><text x="500" y="120" font-family="ui-sans-serif,system-ui,-apple-system,'Segoe UI',Roboto,Helvetica,Arial,sans-serif" font-size="18" fill="#475569" opacity="0">Hi 👋, my name is<animate attributeName="opacity" values="0;1" dur="0.6s" begin="0.4s" fill="freeze"/></text><text x="500" y="164" font-family="ui-sans-serif,system-ui,-apple-system,'Segoe UI',Roboto,Helvetica,Arial,sans-serif" font-size="34" font-weight="700" fill="url(#accent)" filter="url(#glow)" opacity="0">Olexandr Gerasimenko<animate attributeName="opacity" values="0;1" dur="0.7s" begin="0.7s" fill="freeze"/><animateTransform attributeName="transform" type="translate" values="-10 0;0 0" dur="0.7s" begin="0.7s" fill="freeze"/></text><text x="500" y="210" font-family="'SFMono-Regular',Consolas,'Liberation Mono',Menlo,monospace" font-size="22" fill="#06B6D4" opacity="0">&gt; <animate attributeName="opacity" values="0;1" dur="0.4s" begin="1.0s" fill="freeze"/></text><clipPath id="tc0"><rect x="526.4" y="188" height="28" width="0"><animate attributeName="width" values="0.0;224.4;224.4;0.0;0.0" keyTimes="0.0000;0.0667;0.1600;0.2000;1.0000" dur="15.0s" begin="1.4s" repeatCount="indefinite"/></rect></clipPath><text x="526.4" y="210" font-family="'SFMono-Regular',Consolas,'Liberation Mono',Menlo,monospace" font-size="22" font-weight="600" fill="#10B981" clip-path="url(#tc0)">Frontend Engineer</text><clipPath id="tc1"><rect x="526.4" y="188" height="28" width="0"><animate attributeName="width" values="0.0;0.0;264.0;264.0;0.0;0.0" keyTimes="0.0000;0.2000;0.2667;0.3600;0.4000;1.0000" dur="15.0s" begin="1.4s" repeatCount="indefinite"/></rect></clipPath><text x="526.4" y="210" font-family="'SFMono-Regular',Consolas,'Liberation Mono',Menlo,monospace" font-size="22" font-weight="600" fill="#10B981" clip-path="url(#tc1)">Full Stack Developer</text><clipPath id="tc2"><rect x="526.4" y="188" height="28" width="0"><animate attributeName="width" values="0.0;0.0;303.6;303.6;0.0;0.0" keyTimes="0.0000;0.4000;0.4667;0.5600;0.6000;1.0000" dur="15.0s" begin="1.4s" repeatCount="indefinite"/></rect></clipPath><text x="526.4" y="210" font-family="'SFMono-Regular',Consolas,'Liberation Mono',Menlo,monospace" font-size="22" font-weight="600" fill="#10B981" clip-path="url(#tc2)">Open Source Contributor</text><clipPath id="tc3"><rect x="526.4" y="188" height="28" width="0"><animate attributeName="width" values="0.0;0.0;145.2;145.2;0.0;0.0" keyTimes="0.0000;0.6000;0.6667;0.7600;0.8000;1.0000" dur="15.0s" begin="1.4s" repeatCount="indefinite"/></rect></clipPath><text x="526.4" y="210" font-family="'SFMono-Regular',Consolas,'Liberation Mono',Menlo,monospace" font-size="22" font-weight="600" fill="#10B981" clip-path="url(#tc3)">UI Engineer</text><clipPath id="tc4"><rect x="526.4" y="188" height="28" width="0"><animate attributeName="width" values="0.0;0.0;171.6;171.6;0.0" keyTimes="0.0000;0.8000;0.8667;0.9600;1.0000" dur="15.0s" begin="1.4s" repeatCount="indefinite"/></rect></clipPath><text x="526.4" y="210" font-family="'SFMono-Regular',Consolas,'Liberation Mono',Menlo,monospace" font-size="22" font-weight="600" fill="#10B981" clip-path="url(#tc4)">AI Enthusiast</text><rect y="191" width="12" height="22" fill="#06B6D4" x="526.4"><animate attributeName="x" values="526.4;750.8;750.8;526.4;790.4;790.4;526.4;830.0;830.0;526.4;671.6;671.6;526.4;698.0;698.0;526.4" keyTimes="0.0000;0.0667;0.1600;0.2000;0.2667;0.3600;0.4000;0.4667;0.5600;0.6000;0.6667;0.7600;0.8000;0.8667;0.9600;1.0000" dur="15.0s" begin="1.4s" repeatCount="indefinite"/><animate attributeName="opacity" values="1;1;0;0;1" keyTimes="0;0.45;0.5;0.95;1" dur="1s" repeatCount="indefinite"/></rect><g opacity="0"><animate attributeName="opacity" values="0;1" dur="0.5s" begin="1.60s" fill="freeze"/><animateTransform attributeName="transform" type="translate" values="-8 0;0 0" dur="0.5s" begin="1.60s" fill="freeze"/><g transform="translate(500,241) scale(1.000)" fill="none" stroke="#06B6D4" stroke-width="1.6" stroke-linecap="round" stroke-linejoin="round"><path d="M9 1.5c-3 0-5.2 2.2-5.2 5.2C3.8 10.8 9 16.5 9 16.5s5.2-5.7 5.2-9.8C14.2 3.7 12 1.5 9 1.5z"/><circle cx="9" cy="6.7" r="2" fill="#06B6D4" stroke="none"/></g><text x="530" y="256" font-family="ui-sans-serif,system-ui,-apple-system,'Segoe UI',Roboto,Helvetica,Arial,sans-serif" font-size="14" fill="#0F172A">Kharkiv, Ukraine</text></g><g opacity="0"><animate attributeName="opacity" values="0;1" dur="0.5s" begin="1.88s" fill="freeze"/><animateTransform attributeName="transform" type="translate" values="-8 0;0 0" dur="0.5s" begin="1.88s" fill="freeze"/><g transform="translate(500,274) scale(1.000)" fill="none" stroke="#06B6D4" stroke-width="1.6" stroke-linecap="round" stroke-linejoin="round"><path d="M9 2.2 16.5 6 9 9.8 1.5 6 9 2.2z"/><path d="M4.5 7.4v3.6c0 1.2 2 2.4 4.5 2.4s4.5-1.2 4.5-2.4V7.4"/><path d="M16.5 6v4"/></g><text x="530" y="289" font-family="ui-sans-serif,system-ui,-apple-system,'Segoe UI',Roboto,Helvetica,Arial,sans-serif" font-size="12.5" fill="#0F172A">National University of Urban Economy in Kharkiv (O.M. Beketov NUUEKh)</text></g><g opacity="0"><animate attributeName="opacity" values="0;1" dur="0.5s" begin="2.16s" fill="freeze"/><animateTransform attributeName="transform" type="translate" values="-8 0;0 0" dur="0.5s" begin="2.16s" fill="freeze"/><g transform="translate(500,307) scale(1.000)" fill="none" stroke="#06B6D4" stroke-width="1.6" stroke-linecap="round" stroke-linejoin="round"><rect x="3" y="3" width="8" height="12.5" rx="1"/><path d="M11 7h4v8.5h-4"/><path d="M5.4 6h1.6M5.4 8.6h1.6M5.4 11.2h1.6"/><path d="M12.6 9.2h1M12.6 11.6h1"/></g><text x="530" y="322" font-family="ui-sans-serif,system-ui,-apple-system,'Segoe UI',Roboto,Helvetica,Arial,sans-serif" font-size="14" fill="#0F172A">Hygge Software</text></g><g opacity="0"><animate attributeName="opacity" values="0;1" dur="0.5s" begin="2.44s" fill="freeze"/><animateTransform attributeName="transform" type="translate" values="-8 0;0 0" dur="0.5s" begin="2.44s" fill="freeze"/><g transform="translate(500,340) scale(1.000)" fill="none" stroke="#06B6D4" stroke-width="1.6" stroke-linecap="round" stroke-linejoin="round"><rect x="2" y="4" width="14" height="10" rx="1.6"/><path d="M2.6 5 9 9.6 15.4 5"/></g><text x="530" y="355" font-family="ui-sans-serif,system-ui,-apple-system,'Segoe UI',Roboto,Helvetica,Arial,sans-serif" font-size="14" fill="#0F172A">avtoelectronic1987@gmail.com</text></g><g opacity="0"><animate attributeName="opacity" values="0;1" dur="0.5s" begin="2.72s" fill="freeze"/><animateTransform attributeName="transform" type="translate" values="-8 0;0 0" dur="0.5s" begin="2.72s" fill="freeze"/><g transform="translate(500,373) scale(1.125)"><path fill="#06B6D4" fill-rule="evenodd" d="M8 0C3.58 0 0 3.58 0 8c0 3.54 2.29 6.53 5.47 7.59.4.07.55-.17.55-.38 0-.19-.01-.82-.01-1.49-2.01.37-2.53-.49-2.69-.94-.09-.23-.48-.94-.82-1.13-.28-.15-.68-.52-.01-.53.63-.01 1.08.58 1.23.82.72 1.21 1.87.87 2.33.66.07-.52.28-.87.51-1.07-1.78-.2-3.64-.89-3.64-3.95 0-.87.31-1.59.82-2.15-.08-.2-.36-1.02.08-2.12 0 0 .67-.21 2.2.82a7.65 7.65 0 0 1 2-.27c.68 0 1.36.09 2 .27 1.53-1.04 2.2-.82 2.2-.82.44 1.1.16 1.92.08 2.12.51.56.82 1.27.82 2.15 0 3.07-1.87 3.75-3.65 3.95.29.25.54.73.54 1.48 0 1.07-.01 1.93-.01 2.2 0 .21.15.46.55.38A8.01 8.01 0 0 0 16 8c0-4.42-3.58-8-8-8z"/></g><text x="530" y="388" font-family="ui-sans-serif,system-ui,-apple-system,'Segoe UI',Roboto,Helvetica,Arial,sans-serif" font-size="14" fill="#0F172A">github.com/AlexandrGerasimenko</text></g><text x="500" y="422" font-family="'SFMono-Regular',Consolas,'Liberation Mono',Menlo,monospace" font-size="12" fill="#475569" letter-spacing="1.5" opacity="0">// tech stack<animate attributeName="opacity" values="0;1" dur="0.5s" begin="3.0s" fill="freeze"/></text><g opacity="0"><animate attributeName="opacity" values="0;1" dur="0.4s" begin="3.20s" fill="freeze"/><rect x="500.0" y="440.0" width="77.8" height="27" rx="13.5" fill="rgba(37,99,235,0.06)" stroke="rgba(6,182,212,0.30)" stroke-width="1" filter="url(#glow)"><animate attributeName="stroke-opacity" values="0.4;0.9;0.4" dur="3s" begin="3.20s" repeatCount="indefinite"/></rect><text x="538.9" y="458.0" font-family="ui-sans-serif,system-ui,-apple-system,'Segoe UI',Roboto,Helvetica,Arial,sans-serif" font-size="13" text-anchor="middle" fill="#0F172A">Angular</text></g><g opacity="0"><animate attributeName="opacity" values="0;1" dur="0.4s" begin="3.29s" fill="freeze"/><rect x="586.8" y="440.0" width="55.6" height="27" rx="13.5" fill="rgba(37,99,235,0.06)" stroke="rgba(6,182,212,0.30)" stroke-width="1" filter="url(#glow)"><animate attributeName="stroke-opacity" values="0.4;0.9;0.4" dur="4s" begin="3.29s" repeatCount="indefinite"/></rect><text x="614.6" y="458.0" font-family="ui-sans-serif,system-ui,-apple-system,'Segoe UI',Roboto,Helvetica,Arial,sans-serif" font-size="13" text-anchor="middle" fill="#0F172A">RxJS</text></g><g opacity="0"><animate attributeName="opacity" values="0;1" dur="0.4s" begin="3.38s" fill="freeze"/><rect x="651.4" y="440.0" width="55.6" height="27" rx="13.5" fill="rgba(37,99,235,0.06)" stroke="rgba(6,182,212,0.30)" stroke-width="1" filter="url(#glow)"><animate attributeName="stroke-opacity" values="0.4;0.9;0.4" dur="5s" begin="3.38s" repeatCount="indefinite"/></rect><text x="679.2" y="458.0" font-family="ui-sans-serif,system-ui,-apple-system,'Segoe UI',Roboto,Helvetica,Arial,sans-serif" font-size="13" text-anchor="middle" fill="#0F172A">NgRx</text></g><g opacity="0"><animate attributeName="opacity" values="0;1" dur="0.4s" begin="3.47s" fill="freeze"/><rect x="716.0" y="440.0" width="63.0" height="27" rx="13.5" fill="rgba(37,99,235,0.06)" stroke="rgba(6,182,212,0.30)" stroke-width="1" filter="url(#glow)"><animate attributeName="stroke-opacity" values="0.4;0.9;0.4" dur="6s" begin="3.47s" repeatCount="indefinite"/></rect><text x="747.5" y="458.0" font-family="ui-sans-serif,system-ui,-apple-system,'Segoe UI',Roboto,Helvetica,Arial,sans-serif" font-size="13" text-anchor="middle" fill="#0F172A">Redux</text></g><g opacity="0"><animate attributeName="opacity" values="0;1" dur="0.4s" begin="3.56s" fill="freeze"/><rect x="788.0" y="440.0" width="100.0" height="27" rx="13.5" fill="rgba(37,99,235,0.06)" stroke="rgba(6,182,212,0.30)" stroke-width="1" filter="url(#glow)"><animate attributeName="stroke-opacity" values="0.4;0.9;0.4" dur="3s" begin="3.56s" repeatCount="indefinite"/></rect><text x="838.0" y="458.0" font-family="ui-sans-serif,system-ui,-apple-system,'Segoe UI',Roboto,Helvetica,Arial,sans-serif" font-size="13" text-anchor="middle" fill="#0F172A">TypeScript</text></g><g opacity="0"><animate attributeName="opacity" values="0;1" dur="0.4s" begin="3.65s" fill="freeze"/><rect x="897.0" y="440.0" width="100.0" height="27" rx="13.5" fill="rgba(37,99,235,0.06)" stroke="rgba(6,182,212,0.30)" stroke-width="1" filter="url(#glow)"><animate attributeName="stroke-opacity" values="0.4;0.9;0.4" dur="4s" begin="3.65s" repeatCount="indefinite"/></rect><text x="947.0" y="458.0" font-family="ui-sans-serif,system-ui,-apple-system,'Segoe UI',Roboto,Helvetica,Arial,sans-serif" font-size="13" text-anchor="middle" fill="#0F172A">JavaScript</text></g><g opacity="0"><animate attributeName="opacity" values="0;1" dur="0.4s" begin="3.74s" fill="freeze"/><rect x="1006.0" y="440.0" width="63.0" height="27" rx="13.5" fill="rgba(37,99,235,0.06)" stroke="rgba(6,182,212,0.30)" stroke-width="1" filter="url(#glow)"><animate attributeName="stroke-opacity" values="0.4;0.9;0.4" dur="5s" begin="3.74s" repeatCount="indefinite"/></rect><text x="1037.5" y="458.0" font-family="ui-sans-serif,system-ui,-apple-system,'Segoe UI',Roboto,Helvetica,Arial,sans-serif" font-size="13" text-anchor="middle" fill="#0F172A">React</text></g><g opacity="0"><animate attributeName="opacity" values="0;1" dur="0.4s" begin="3.83s" fill="freeze"/><rect x="500.0" y="476.0" width="77.8" height="27" rx="13.5" fill="rgba(37,99,235,0.06)" stroke="rgba(6,182,212,0.30)" stroke-width="1" filter="url(#glow)"><animate attributeName="stroke-opacity" values="0.4;0.9;0.4" dur="6s" begin="3.83s" repeatCount="indefinite"/></rect><text x="538.9" y="494.0" font-family="ui-sans-serif,system-ui,-apple-system,'Segoe UI',Roboto,Helvetica,Arial,sans-serif" font-size="13" text-anchor="middle" fill="#0F172A">Next.js</text></g><g opacity="0"><animate attributeName="opacity" values="0;1" dur="0.4s" begin="3.92s" fill="freeze"/><rect x="586.8" y="476.0" width="77.8" height="27" rx="13.5" fill="rgba(37,99,235,0.06)" stroke="rgba(6,182,212,0.30)" stroke-width="1" filter="url(#glow)"><animate attributeName="stroke-opacity" values="0.4;0.9;0.4" dur="3s" begin="3.92s" repeatCount="indefinite"/></rect><text x="625.7" y="494.0" font-family="ui-sans-serif,system-ui,-apple-system,'Segoe UI',Roboto,Helvetica,Arial,sans-serif" font-size="13" text-anchor="middle" fill="#0F172A">Node.js</text></g><g opacity="0"><animate attributeName="opacity" values="0;1" dur="0.4s" begin="4.01s" fill="freeze"/><rect x="673.6" y="476.0" width="55.6" height="27" rx="13.5" fill="rgba(37,99,235,0.06)" stroke="rgba(6,182,212,0.30)" stroke-width="1" filter="url(#glow)"><animate attributeName="stroke-opacity" values="0.4;0.9;0.4" dur="4s" begin="4.01s" repeatCount="indefinite"/></rect><text x="701.4" y="494.0" font-family="ui-sans-serif,system-ui,-apple-system,'Segoe UI',Roboto,Helvetica,Arial,sans-serif" font-size="13" text-anchor="middle" fill="#0F172A">SCSS</text></g><g opacity="0"><animate attributeName="opacity" values="0;1" dur="0.4s" begin="4.10s" fill="freeze"/><rect x="738.2" y="476.0" width="85.2" height="27" rx="13.5" fill="rgba(37,99,235,0.06)" stroke="rgba(6,182,212,0.30)" stroke-width="1" filter="url(#glow)"><animate attributeName="stroke-opacity" values="0.4;0.9;0.4" dur="5s" begin="4.10s" repeatCount="indefinite"/></rect><text x="780.8" y="494.0" font-family="ui-sans-serif,system-ui,-apple-system,'Segoe UI',Roboto,Helvetica,Arial,sans-serif" font-size="13" text-anchor="middle" fill="#0F172A">Tailwind</text></g><g opacity="0"><animate attributeName="opacity" values="0;1" dur="0.4s" begin="4.19s" fill="freeze"/><rect x="832.4" y="476.0" width="70.4" height="27" rx="13.5" fill="rgba(37,99,235,0.06)" stroke="rgba(6,182,212,0.30)" stroke-width="1" filter="url(#glow)"><animate attributeName="stroke-opacity" values="0.4;0.9;0.4" dur="6s" begin="4.19s" repeatCount="indefinite"/></rect><text x="867.6" y="494.0" font-family="ui-sans-serif,system-ui,-apple-system,'Segoe UI',Roboto,Helvetica,Arial,sans-serif" font-size="13" text-anchor="middle" fill="#0F172A">Docker</text></g><g opacity="0"><animate attributeName="opacity" values="0;1" dur="0.4s" begin="4.28s" fill="freeze"/><rect x="911.8" y="476.0" width="85.2" height="27" rx="13.5" fill="rgba(37,99,235,0.06)" stroke="rgba(6,182,212,0.30)" stroke-width="1" filter="url(#glow)"><animate attributeName="stroke-opacity" values="0.4;0.9;0.4" dur="3s" begin="4.28s" repeatCount="indefinite"/></rect><text x="954.4" y="494.0" font-family="ui-sans-serif,system-ui,-apple-system,'Segoe UI',Roboto,Helvetica,Arial,sans-serif" font-size="13" text-anchor="middle" fill="#0F172A">Postgres</text></g><g opacity="0"><animate attributeName="opacity" values="0;1" dur="0.4s" begin="4.37s" fill="freeze"/><rect x="1006.0" y="476.0" width="48.2" height="27" rx="13.5" fill="rgba(37,99,235,0.06)" stroke="rgba(6,182,212,0.30)" stroke-width="1" filter="url(#glow)"><animate attributeName="stroke-opacity" values="0.4;0.9;0.4" dur="4s" begin="4.37s" repeatCount="indefinite"/></rect><text x="1030.1" y="494.0" font-family="ui-sans-serif,system-ui,-apple-system,'Segoe UI',Roboto,Helvetica,Arial,sans-serif" font-size="13" text-anchor="middle" fill="#0F172A">Git</text></g><g opacity="0"><animate attributeName="opacity" values="0;1" dur="0.4s" begin="4.46s" fill="freeze"/><rect x="500.0" y="512.0" width="63.0" height="27" rx="13.5" fill="rgba(37,99,235,0.06)" stroke="rgba(6,182,212,0.30)" stroke-width="1" filter="url(#glow)"><animate attributeName="stroke-opacity" values="0.4;0.9;0.4" dur="5s" begin="4.46s" repeatCount="indefinite"/></rect><text x="531.5" y="530.0" font-family="ui-sans-serif,system-ui,-apple-system,'Segoe UI',Roboto,Helvetica,Arial,sans-serif" font-size="13" text-anchor="middle" fill="#0F172A">Figma</text></g><g opacity="0"><animate attributeName="opacity" values="0;1" dur="0.5s" begin="4.20s" fill="freeze"/><rect x="500" y="546" width="34" height="34" rx="10" fill="rgba(37,99,235,0.06)" stroke="rgba(6,182,212,0.30)" stroke-width="1" filter="url(#glow)"><animate attributeName="stroke-opacity" values="0.4;0.9;0.4" dur="3.5s" begin="4.20s" repeatCount="indefinite"/></rect><g transform="translate(508,554) scale(1.125)"><path fill="#0F172A" fill-rule="evenodd" d="M8 0C3.58 0 0 3.58 0 8c0 3.54 2.29 6.53 5.47 7.59.4.07.55-.17.55-.38 0-.19-.01-.82-.01-1.49-2.01.37-2.53-.49-2.69-.94-.09-.23-.48-.94-.82-1.13-.28-.15-.68-.52-.01-.53.63-.01 1.08.58 1.23.82.72 1.21 1.87.87 2.33.66.07-.52.28-.87.51-1.07-1.78-.2-3.64-.89-3.64-3.95 0-.87.31-1.59.82-2.15-.08-.2-.36-1.02.08-2.12 0 0 .67-.21 2.2.82a7.65 7.65 0 0 1 2-.27c.68 0 1.36.09 2 .27 1.53-1.04 2.2-.82 2.2-.82.44 1.1.16 1.92.08 2.12.51.56.82 1.27.82 2.15 0 3.07-1.87 3.75-3.65 3.95.29.25.54.73.54 1.48 0 1.07-.01 1.93-.01 2.2 0 .21.15.46.55.38A8.01 8.01 0 0 0 16 8c0-4.42-3.58-8-8-8z"/></g></g><g opacity="0"><animate attributeName="opacity" values="0;1" dur="0.5s" begin="4.45s" fill="freeze"/><rect x="544" y="546" width="34" height="34" rx="10" fill="rgba(37,99,235,0.06)" stroke="rgba(6,182,212,0.30)" stroke-width="1" filter="url(#glow)"><animate attributeName="stroke-opacity" values="0.4;0.9;0.4" dur="3.5s" begin="4.45s" repeatCount="indefinite"/></rect><g transform="translate(552,554) scale(1.000)" fill="none" stroke="#0F172A" stroke-width="1.6" stroke-linecap="round" stroke-linejoin="round"><rect x="2" y="4" width="14" height="10" rx="1.6"/><path d="M2.6 5 9 9.6 15.4 5"/></g></g></svg>